<?xml version="1.0" encoding="UTF-8" standalone="no"?>
<!-- Created with Inkscape (http://www.inkscape.org/) -->

<svg
   xmlns:dc="http://purl.org/dc/elements/1.1/"
   xmlns:cc="http://creativecommons.org/ns#"
   xmlns:rdf="http://www.w3.org/1999/02/22-rdf-syntax-ns#"
   xmlns:svg="http://www.w3.org/2000/svg"
   xmlns="http://www.w3.org/2000/svg"
   xmlns:sodipodi="http://sodipodi.sourceforge.net/DTD/sodipodi-0.dtd"
   xmlns:inkscape="http://www.inkscape.org/namespaces/inkscape"
   width="744.09448819"
   height="1052.3622047"
   id="svg2"
   version="1.1"
   inkscape:version="0.48.4 r9939"
   sodipodi:docname="New document 1">
  <defs
     id="defs4" />
  <sodipodi:namedview
     id="base"
     pagecolor="#ffffff"
     bordercolor="#666666"
     borderopacity="1.0"
     inkscape:pageopacity="0.0"
     inkscape:pageshadow="2"
     inkscape:zoom="1.4142136"
     inkscape:cx="300.78412"
     inkscape:cy="800.61866"
     inkscape:document-units="px"
     inkscape:current-layer="layer1"
     showgrid="true"
     inkscape:window-width="1280"
     inkscape:window-height="971"
     inkscape:window-x="0"
     inkscape:window-y="0"
     inkscape:window-maximized="1">
    <inkscape:grid
       type="xygrid"
       id="grid3017" />
  </sodipodi:namedview>
  <metadata
     id="metadata7">
    <rdf:RDF>
      <cc:Work
         rdf:about="">
        <dc:format>image/svg+xml</dc:format>
        <dc:type
           rdf:resource="http://purl.org/dc/dcmitype/StillImage" />
        <dc:title></dc:title>
      </cc:Work>
    </rdf:RDF>
  </metadata>
  <g
     inkscape:label="Layer 1"
     inkscape:groupmode="layer"
     id="layer1">
    <path
       style="font-size:medium;font-style:normal;font-variant:normal;font-weight:normal;font-stretch:normal;text-indent:0;text-align:start;text-decoration:none;line-height:normal;letter-spacing:normal;word-spacing:normal;text-transform:none;direction:ltr;block-progression:tb;writing-mode:lr-tb;text-anchor:start;baseline-shift:baseline;color:#000000;fill:#000000;fill-opacity:1;stroke:none;stroke-width:1px;marker:none;visibility:visible;display:inline;overflow:visible;enable-background:accumulate;font-family:Sans;-inkscape-font-specification:Sans"
       d="m 451.5,81.875 0,0.5 0,20 0,0.5 0.5,0 c 44.85185,0 69.63437,19.86761 83.3125,42.25 13.50712,22.10256 16.09322,46.58907 16.15625,56.75 l -9.46875,0 -1.21875,0 0.875,0.84375 20,20 0.34375,0.34375 0.34375,-0.34375 20,-20 0.875,-0.84375 -1.21875,0 -9.46875,0 c 0.1137,-1.48446 2.14576,-30.35528 -11.3125,-59.71875 C 547.40658,112.02061 517.15385,81.875 452,81.875 l -0.5,0 z m 1,1 c 64.48801,0.157977 94.12979,29.9025 107.78125,59.6875 13.68783,29.86436 11.21875,59.75 11.21875,59.75 l -0.0313,0.5625 0.53125,0 8.78125,0 L 562,221.65625 543.21875,202.875 l 8.78125,0 0.5,0 0,-0.5 c 0,-10.08333 -2.49063,-35.16364 -16.3125,-57.78125 -13.76786,-22.52923 -38.87088,-42.53113 -83.6875,-42.6875 l 0,-19.03125 z"
       id="path3019"
       inkscape:connector-curvature="0" />
    <path
       style="font-size:medium;font-style:normal;font-variant:normal;font-weight:normal;font-stretch:normal;text-indent:0;text-align:start;text-decoration:none;line-height:normal;letter-spacing:normal;word-spacing:normal;text-transform:none;direction:ltr;block-progression:tb;writing-mode:lr-tb;text-anchor:start;baseline-shift:baseline;color:#000000;fill:#000000;fill-opacity:1;stroke:none;stroke-width:1px;marker:none;visibility:visible;display:inline;overflow:visible;enable-background:accumulate;font-family:Sans;-inkscape-font-specification:Sans"
       d="m 579.08301,292.40442 -0.49999,-0.002 -19.9999,-0.0633 -0.5,-0.002 -0.002,0.5 c -0.14191,44.85162 -20.08783,69.57116 -42.51338,83.17841 -22.14519,13.43712 -46.63976,15.94573 -56.80084,15.97661 l 0.03,-9.46871 0.004,-1.21873 -0.84652,0.87232 -20.06318,19.93662 -0.34483,0.34266 0.34265,0.34483 19.93663,20.06319 0.84097,0.87766 0.004,-1.21874 0.03,-9.4687 c 1.48409,0.11839 30.34833,2.24179 59.75424,-11.1235 30.17919,-13.71676 60.42037,-43.87396 60.62651,-109.02747 l 0.002,-0.50001 z m -1.00316,0.99684 c -0.36201,64.48718 -30.20017,94.03471 -60.02821,107.59186 -29.90752,13.59327 -59.7852,11.02965 -59.7852,11.02965 l -0.5624,-0.0331 -0.002,0.53126 -0.0278,8.7812 -18.72174,-18.84053 18.84059,-18.72173 -0.0278,8.7812 -0.002,0.5 0.50001,0.002 c 10.08328,0.0319 35.17133,-2.37936 57.83257,-16.1296 22.57268,-13.69651 42.6539,-38.73612 42.95207,-83.55201 l 19.03115,0.0602 z"
       id="path3019-6"
       inkscape:connector-curvature="0" />
    <path
       style="font-size:medium;font-style:normal;font-variant:normal;font-weight:normal;font-stretch:normal;text-indent:0;text-align:start;text-decoration:none;line-height:normal;letter-spacing:normal;word-spacing:normal;text-transform:none;direction:ltr;block-progression:tb;writing-mode:lr-tb;text-anchor:start;baseline-shift:baseline;color:#000000;fill:#000000;fill-opacity:1;stroke:none;stroke-width:1px;marker:none;visibility:visible;display:inline;overflow:visible;enable-background:accumulate;font-family:Sans;-inkscape-font-specification:Sans"
       d="m 291.78876,414.65419 7.9e-4,-0.5 0.0414,-19.99995 7.9e-4,-0.5 -0.50001,-7.9e-4 c -44.85175,-0.0929 -69.59309,-20.01174 -83.22484,-42.42241 -13.46132,-22.13048 -15.99673,-46.62229 -16.03871,-56.78334 l 9.46873,0.0196 1.21874,0.002 -0.87324,-0.84557 -19.95855,-20.04136 -0.34304,-0.34445 -0.34445,0.34302 -20.04138,19.95855 -0.87674,0.84194 1.21874,0.002 9.46874,0.0196 c -0.11673,1.48423 -2.20861,30.35077 11.18883,59.74205 13.74974,30.16417 43.93999,60.37235 109.09369,60.50725 l 0.50001,7.9e-4 z m -0.99793,-1.00206 c -64.48753,-0.2915 -94.06767,-30.09734 -107.65743,-59.91054 -13.62596,-29.89264 -11.095,-59.7731 -11.095,-59.7731 l 0.0325,-0.56244 -0.53126,-10e-4 -8.78122,-0.0182 18.82006,-18.74232 18.74231,18.8201 -8.78123,-0.0182 -0.5,-7.9e-4 -7.9e-4,0.50001 c -0.0209,10.08331 2.41781,35.16872 16.19281,57.8149 13.72119,22.55769 38.78275,42.61152 83.59893,42.86069 l -0.0394,19.03121 z"
       id="path3019-6-2"
       inkscape:connector-curvature="0" />
    <path
       style="font-size:medium;font-style:normal;font-variant:normal;font-weight:normal;font-stretch:normal;text-indent:0;text-align:start;text-decoration:none;line-height:normal;letter-spacing:normal;word-spacing:normal;text-transform:none;direction:ltr;block-progression:tb;writing-mode:lr-tb;text-anchor:start;baseline-shift:baseline;color:#000000;fill:#000000;fill-opacity:1;stroke:none;stroke-width:1px;marker:none;visibility:visible;display:inline;overflow:visible;enable-background:accumulate;font-family:Sans;-inkscape-font-specification:Sans"
       d="m 165.54479,201.85675 0.49998,0.005 19.99909,0.19052 0.49998,0.005 0.005,-0.49999 c 0.42726,-44.84981 20.53005,-69.44196 43.04172,-82.90624 22.23023,-13.29596 46.74027,-15.64869 56.90134,-15.61492 l -0.0902,9.46833 -0.0116,1.21868 0.85205,-0.86691 20.18961,-19.808582 0.347,-0.340459 -0.34045,-0.347002 -19.80857,-20.189618 -0.83538,-0.883002 -0.0116,1.218697 -0.0902,9.468323 c -1.48375,-0.128772 -30.33389,-2.435812 -59.82424,10.742131 -30.26585,13.524472 -60.69827,43.488662 -61.31893,108.639542 l -0.005,0.49999 z m 1.00948,-0.99044 c 0.77228,-64.48356 30.79783,-93.84066 60.71152,-107.207769 29.99339,-13.402719 59.85415,-10.649057 59.85415,-10.649057 l 0.56219,0.03666 0.005,-0.53123 0.0837,-8.780843 18.60148,18.959265 -18.95931,18.601474 0.0837,-8.78085 0.005,-0.49998 -0.49999,-0.005 c -10.08287,-0.0961 -35.18577,2.15555 -57.93403,15.76133 -22.65936,13.55263 -42.89948,38.46397 -43.48277,83.27705 l -19.03039,-0.18129 z"
       id="path3019-6-2-7"
       inkscape:connector-curvature="0" />
    <text
       xml:space="preserve"
       style="font-size:40px;font-style:normal;font-weight:normal;line-height:125%;letter-spacing:0px;word-spacing:0px;fill:#000000;fill-opacity:1;stroke:none;font-family:Sans"
       x="518"
       y="262.36218"
       id="text3079"
       sodipodi:linespacing="125%"><tspan
         sodipodi:role="line"
         id="tspan3081"
         x="518"
         y="262.36218"
         style="font-size:24px;font-style:normal;font-variant:normal;font-weight:normal;font-stretch:normal;text-align:start;line-height:125%;writing-mode:lr-tb;text-anchor:start;font-family:Sans;-inkscape-font-specification:Sans">Observe</tspan></text>
    <text
       xml:space="preserve"
       style="font-size:24px;font-style:normal;font-variant:normal;font-weight:normal;font-stretch:normal;text-align:start;line-height:125%;letter-spacing:0px;word-spacing:0px;writing-mode:lr-tb;text-anchor:start;fill:#000000;fill-opacity:1;stroke:none;font-family:Sans;-inkscape-font-specification:Sans"
       x="360"
       y="262.36218"
       id="text3083"
       sodipodi:linespacing="125%"><tspan
         sodipodi:role="line"
         id="tspan3085"
         x="360"
         y="262.36218">Define</tspan></text>
    <text
       xml:space="preserve"
       style="font-size:24px;font-style:normal;font-variant:normal;font-weight:normal;font-stretch:normal;text-align:start;line-height:125%;letter-spacing:0px;word-spacing:0px;writing-mode:lr-tb;text-anchor:start;fill:#000000;fill-opacity:1;stroke:none;font-family:Sans;-inkscape-font-specification:Sans"
       x="330"
       y="410.36218"
       id="text3083-9"
       sodipodi:linespacing="125%"><tspan
         sodipodi:role="line"
         id="tspan3085-4"
         x="330"
         y="410.36218">Assess</tspan></text>
    <text
       xml:space="preserve"
       style="font-size:40px;font-style:normal;font-weight:normal;line-height:125%;letter-spacing:0px;word-spacing:0px;fill:#000000;fill-opacity:1;stroke:none;font-family:Sans"
       x="136"
       y="252.36218"
       id="text3079-5"
       sodipodi:linespacing="125%"><tspan
         sodipodi:role="line"
         id="tspan3081-0"
         x="136"
         y="252.36218"
         style="font-size:24px;font-style:normal;font-variant:normal;font-weight:normal;font-stretch:normal;text-align:start;line-height:125%;writing-mode:lr-tb;text-anchor:start;font-family:Sans;-inkscape-font-specification:Sans">Design</tspan></text>
    <text
       xml:space="preserve"
       style="font-size:40px;font-style:normal;font-weight:normal;line-height:125%;letter-spacing:0px;word-spacing:0px;fill:#000000;fill-opacity:1;stroke:none;font-family:Sans"
       x="314"
       y="98.362183"
       id="text3079-5-0"
       sodipodi:linespacing="125%"><tspan
         sodipodi:role="line"
         id="tspan3081-0-2"
         x="314"
         y="98.362183"
         style="font-size:24px;font-style:normal;font-variant:normal;font-weight:normal;font-stretch:normal;text-align:start;line-height:125%;writing-mode:lr-tb;text-anchor:start;font-family:Sans;-inkscape-font-specification:Sans">Implement</tspan></text>
  </g>
</svg>
